# xmcd
# Track frame offsets:
# 150
# 15608
# 28036
# 42604
# 55336
# 68263
# 83227
# 96412
# 107552
# 120352
# 132698
# 144104
# 156935
# 169096
# 181002
# 194704
#
# Disc length: 2759 seconds
# Revision: 0
# Processed by: cddbd v1.5.1PL2 Copyright (c) Steve Scherf et al.
# Submitted via: VisiTrax 2.9.10.228 - For more info visit www.synapsa.com
#
DISCID=d70ac510
DTITLE=Various Artist - O Brother - CD3
DYEAR=2005
DGENRE=
TTITLE0=O Death - Pace Jubilee Singers
TTITLE1=Hello Stranger - The Carter Family
TTITLE2=Sitting On Top Of The World - The Mississippi Sheiks
TTITLE3=I's So Glad - Skip James
TTITLE4=Gathering Flowers For The Master's Bouquet - The Stanley Brothers
TTITLE5=I'm A Man Of Constant Sorrow - Emry Arthyr
TTITLE6=Sail Away Ladies - Uncle Dave Macon
TTITLE7=You've Got To Move - The Fairfield Four
TTITLE8=Heaven's Radio - Molly O'Day and The Cumberland Mountain Folks
TTITLE9=Waiting For A Train - Jimmie Rodgers
TTITLE10=Honey In The Rock - The Five Blind Boyys Of Alabama
TTITLE11=Don't Let Your Deal Go Down Blues - Charlie Poole
TTITLE12=Soldier's Joy - Gid Tanner and The Skillet Lickers
TTITLE13=Parchman Farm Blues - Bukka White
TTITLE14=Corrina, Corrina - Clarence Ashley
TTITLE15=Lonesome Valley - David Miller
EXTD=
EXTT0=
EXTT1=
EXTT2=
EXTT3=
EXTT4=
EXTT5=
EXTT6=
EXTT7=
EXTT8=
EXTT9=
EXTT10=
EXTT11=
EXTT12=
EXTT13=
EXTT14=
EXTT15=
PLAYORDER=
